<mxfile host="app.diagrams.net" modified="2023-07-26T20:12:11.533Z" agent="Mozilla/5.0 (X11; Linux x86_64; rv:109.0) Gecko/20100101 Firefox/115.0" etag="M1feuCutJjF03DE6cjGz" version="21.3.2" type="github">
  <diagram id="C5RBs43oDa-KdzZeNtuy" name="Page-1">
    <mxGraphModel dx="2390" dy="1325" grid="1" gridSize="10" guides="1" tooltips="1" connect="1" arrows="1" fold="1" page="1" pageScale="1" pageWidth="827" pageHeight="1169" math="0" shadow="0">
      <root>
        <mxCell id="WIyWlLk6GJQsqaUBKTNV-0" />
        <mxCell id="WIyWlLk6GJQsqaUBKTNV-1" parent="WIyWlLk6GJQsqaUBKTNV-0" />
        <mxCell id="WIyWlLk6GJQsqaUBKTNV-2" value="" style="rounded=0;html=1;jettySize=auto;orthogonalLoop=1;fontSize=11;endArrow=block;endFill=0;endSize=8;strokeWidth=1;shadow=0;labelBackgroundColor=none;edgeStyle=orthogonalEdgeStyle;exitX=0.5;exitY=1;exitDx=0;exitDy=0;dashed=1;" parent="WIyWlLk6GJQsqaUBKTNV-1" source="r6q-n-0OByCn1HlBLOru-3" edge="1">
          <mxGeometry relative="1" as="geometry">
            <mxPoint x="220" y="780" as="sourcePoint" />
            <mxPoint x="220" y="1050" as="targetPoint" />
          </mxGeometry>
        </mxCell>
        <mxCell id="WIyWlLk6GJQsqaUBKTNV-3" value="The page is loaded" style="rounded=1;whiteSpace=wrap;html=1;fontSize=12;glass=0;strokeWidth=1;shadow=0;" parent="WIyWlLk6GJQsqaUBKTNV-1" vertex="1">
          <mxGeometry x="160" y="80" width="120" height="40" as="geometry" />
        </mxCell>
        <mxCell id="r6q-n-0OByCn1HlBLOru-4" value="" style="rounded=0;html=1;jettySize=auto;orthogonalLoop=1;fontSize=11;endArrow=block;endFill=0;endSize=8;strokeWidth=1;shadow=0;labelBackgroundColor=none;edgeStyle=orthogonalEdgeStyle;" edge="1" parent="WIyWlLk6GJQsqaUBKTNV-1" source="WIyWlLk6GJQsqaUBKTNV-3" target="r6q-n-0OByCn1HlBLOru-3">
          <mxGeometry relative="1" as="geometry">
            <mxPoint x="220" y="120" as="sourcePoint" />
            <mxPoint x="220" y="425" as="targetPoint" />
          </mxGeometry>
        </mxCell>
        <mxCell id="r6q-n-0OByCn1HlBLOru-3" value="&lt;div&gt;UserCheckpoint&lt;/div&gt;&lt;div&gt;ensureValidUser()&lt;/div&gt;" style="shape=parallelogram;perimeter=parallelogramPerimeter;whiteSpace=wrap;html=1;fixedSize=1;" vertex="1" parent="WIyWlLk6GJQsqaUBKTNV-1">
          <mxGeometry x="51.25" y="170" width="337.5" height="60" as="geometry" />
        </mxCell>
        <mxCell id="r6q-n-0OByCn1HlBLOru-5" value="" style="rounded=0;html=1;jettySize=auto;orthogonalLoop=1;fontSize=11;endArrow=block;endFill=0;endSize=8;strokeWidth=1;shadow=0;labelBackgroundColor=none;edgeStyle=orthogonalEdgeStyle;entryX=0;entryY=0.5;entryDx=0;entryDy=0;" edge="1" parent="WIyWlLk6GJQsqaUBKTNV-1" source="r6q-n-0OByCn1HlBLOru-3" target="r6q-n-0OByCn1HlBLOru-7">
          <mxGeometry relative="1" as="geometry">
            <mxPoint x="220" y="230" as="sourcePoint" />
            <mxPoint x="220" y="425" as="targetPoint" />
          </mxGeometry>
        </mxCell>
        <mxCell id="r6q-n-0OByCn1HlBLOru-6" value="Is there a stored user?" style="strokeWidth=2;html=1;shape=mxgraph.flowchart.decision;whiteSpace=wrap;" vertex="1" parent="WIyWlLk6GJQsqaUBKTNV-1">
          <mxGeometry x="505" y="585" width="230" height="60" as="geometry" />
        </mxCell>
        <mxCell id="r6q-n-0OByCn1HlBLOru-9" style="edgeStyle=orthogonalEdgeStyle;rounded=0;orthogonalLoop=1;jettySize=auto;html=1;exitX=0.5;exitY=1;exitDx=0;exitDy=0;entryX=0.5;entryY=0;entryDx=0;entryDy=0;entryPerimeter=0;dashed=1;" edge="1" parent="WIyWlLk6GJQsqaUBKTNV-1" source="r6q-n-0OByCn1HlBLOru-10" target="r6q-n-0OByCn1HlBLOru-6">
          <mxGeometry relative="1" as="geometry" />
        </mxCell>
        <mxCell id="r6q-n-0OByCn1HlBLOru-7" value="AuthenticationService::validateAuthenticatedUser()" style="rounded=1;whiteSpace=wrap;html=1;" vertex="1" parent="WIyWlLk6GJQsqaUBKTNV-1">
          <mxGeometry x="460" y="170" width="320" height="60" as="geometry" />
        </mxCell>
        <mxCell id="r6q-n-0OByCn1HlBLOru-11" value="" style="edgeStyle=orthogonalEdgeStyle;rounded=0;orthogonalLoop=1;jettySize=auto;html=1;exitX=0.5;exitY=1;exitDx=0;exitDy=0;entryX=0.5;entryY=0;entryDx=0;entryDy=0;entryPerimeter=0;" edge="1" parent="WIyWlLk6GJQsqaUBKTNV-1" source="r6q-n-0OByCn1HlBLOru-7" target="r6q-n-0OByCn1HlBLOru-10">
          <mxGeometry relative="1" as="geometry">
            <mxPoint x="700" y="230" as="sourcePoint" />
            <mxPoint x="712" y="420" as="targetPoint" />
          </mxGeometry>
        </mxCell>
        <mxCell id="r6q-n-0OByCn1HlBLOru-10" value="UserStorage::getUser()" style="shape=parallelogram;perimeter=parallelogramPerimeter;whiteSpace=wrap;html=1;fixedSize=1;" vertex="1" parent="WIyWlLk6GJQsqaUBKTNV-1">
          <mxGeometry x="525" y="270" width="190" height="60" as="geometry" />
        </mxCell>
        <mxCell id="r6q-n-0OByCn1HlBLOru-12" value="UserStorage::getUser()" style="rounded=1;whiteSpace=wrap;html=1;" vertex="1" parent="WIyWlLk6GJQsqaUBKTNV-1">
          <mxGeometry x="860" y="270" width="230" height="60" as="geometry" />
        </mxCell>
        <mxCell id="r6q-n-0OByCn1HlBLOru-13" value="" style="endArrow=classic;html=1;rounded=0;entryX=0;entryY=0.5;entryDx=0;entryDy=0;exitX=1;exitY=0.5;exitDx=0;exitDy=0;" edge="1" parent="WIyWlLk6GJQsqaUBKTNV-1" source="r6q-n-0OByCn1HlBLOru-10" target="r6q-n-0OByCn1HlBLOru-12">
          <mxGeometry width="50" height="50" relative="1" as="geometry">
            <mxPoint x="410" y="440" as="sourcePoint" />
            <mxPoint x="460" y="390" as="targetPoint" />
          </mxGeometry>
        </mxCell>
        <mxCell id="r6q-n-0OByCn1HlBLOru-14" value="Is `user` property set?" style="rhombus;whiteSpace=wrap;html=1;" vertex="1" parent="WIyWlLk6GJQsqaUBKTNV-1">
          <mxGeometry x="877.5" y="365" width="195" height="80" as="geometry" />
        </mxCell>
        <mxCell id="r6q-n-0OByCn1HlBLOru-15" value="" style="endArrow=classic;html=1;rounded=0;entryX=0.5;entryY=0;entryDx=0;entryDy=0;exitX=0.5;exitY=1;exitDx=0;exitDy=0;" edge="1" parent="WIyWlLk6GJQsqaUBKTNV-1" source="r6q-n-0OByCn1HlBLOru-12" target="r6q-n-0OByCn1HlBLOru-14">
          <mxGeometry width="50" height="50" relative="1" as="geometry">
            <mxPoint x="410" y="440" as="sourcePoint" />
            <mxPoint x="460" y="390" as="targetPoint" />
          </mxGeometry>
        </mxCell>
        <mxCell id="r6q-n-0OByCn1HlBLOru-16" value="return `user`" style="rounded=1;whiteSpace=wrap;html=1;" vertex="1" parent="WIyWlLk6GJQsqaUBKTNV-1">
          <mxGeometry x="915" y="480" width="120" height="60" as="geometry" />
        </mxCell>
        <mxCell id="r6q-n-0OByCn1HlBLOru-17" value="Try to load user from Local Storage" style="rounded=0;whiteSpace=wrap;html=1;" vertex="1" parent="WIyWlLk6GJQsqaUBKTNV-1">
          <mxGeometry x="1130" y="375" width="120" height="60" as="geometry" />
        </mxCell>
        <mxCell id="r6q-n-0OByCn1HlBLOru-18" style="edgeStyle=orthogonalEdgeStyle;rounded=0;orthogonalLoop=1;jettySize=auto;html=1;exitX=0.5;exitY=1;exitDx=0;exitDy=0;entryX=1;entryY=0.5;entryDx=0;entryDy=0;" edge="1" parent="WIyWlLk6GJQsqaUBKTNV-1" source="r6q-n-0OByCn1HlBLOru-17" target="r6q-n-0OByCn1HlBLOru-16">
          <mxGeometry relative="1" as="geometry">
            <mxPoint x="620" y="330" as="sourcePoint" />
            <mxPoint x="712" y="420" as="targetPoint" />
            <Array as="points">
              <mxPoint x="1190" y="510" />
            </Array>
          </mxGeometry>
        </mxCell>
        <mxCell id="r6q-n-0OByCn1HlBLOru-19" value="No" style="endArrow=classic;html=1;rounded=0;entryX=0;entryY=0.5;entryDx=0;entryDy=0;exitX=1;exitY=0.5;exitDx=0;exitDy=0;" edge="1" parent="WIyWlLk6GJQsqaUBKTNV-1" source="r6q-n-0OByCn1HlBLOru-14" target="r6q-n-0OByCn1HlBLOru-17">
          <mxGeometry width="50" height="50" relative="1" as="geometry">
            <mxPoint x="690" y="440" as="sourcePoint" />
            <mxPoint x="740" y="390" as="targetPoint" />
          </mxGeometry>
        </mxCell>
        <mxCell id="r6q-n-0OByCn1HlBLOru-20" value="Yes" style="endArrow=classic;html=1;rounded=0;entryX=0.5;entryY=0;entryDx=0;entryDy=0;exitX=0.5;exitY=1;exitDx=0;exitDy=0;" edge="1" parent="WIyWlLk6GJQsqaUBKTNV-1" source="r6q-n-0OByCn1HlBLOru-14" target="r6q-n-0OByCn1HlBLOru-16">
          <mxGeometry width="50" height="50" relative="1" as="geometry">
            <mxPoint x="690" y="440" as="sourcePoint" />
            <mxPoint x="740" y="390" as="targetPoint" />
          </mxGeometry>
        </mxCell>
        <mxCell id="r6q-n-0OByCn1HlBLOru-21" value="" style="endArrow=classic;html=1;rounded=0;exitX=0;exitY=0.5;exitDx=0;exitDy=0;" edge="1" parent="WIyWlLk6GJQsqaUBKTNV-1" source="r6q-n-0OByCn1HlBLOru-16">
          <mxGeometry width="50" height="50" relative="1" as="geometry">
            <mxPoint x="690" y="460" as="sourcePoint" />
            <mxPoint x="620" y="510" as="targetPoint" />
            <Array as="points">
              <mxPoint x="620" y="510" />
            </Array>
          </mxGeometry>
        </mxCell>
        <mxCell id="r6q-n-0OByCn1HlBLOru-22" value="&amp;nbsp;No (meaning No User is &quot;valid&quot; user)&amp;nbsp; " style="endArrow=classic;html=1;rounded=0;exitX=0;exitY=0.5;exitDx=0;exitDy=0;exitPerimeter=0;" edge="1" parent="WIyWlLk6GJQsqaUBKTNV-1" source="r6q-n-0OByCn1HlBLOru-6">
          <mxGeometry width="50" height="50" relative="1" as="geometry">
            <mxPoint x="690" y="490" as="sourcePoint" />
            <mxPoint x="220" y="615" as="targetPoint" />
          </mxGeometry>
        </mxCell>
        <mxCell id="r6q-n-0OByCn1HlBLOru-23" value="Post whoami request" style="shape=parallelogram;perimeter=parallelogramPerimeter;whiteSpace=wrap;html=1;fixedSize=1;" vertex="1" parent="WIyWlLk6GJQsqaUBKTNV-1">
          <mxGeometry x="530" y="700" width="180" height="60" as="geometry" />
        </mxCell>
        <mxCell id="r6q-n-0OByCn1HlBLOru-24" value="Yes" style="endArrow=classic;html=1;rounded=0;exitX=0.5;exitY=1;exitDx=0;exitDy=0;exitPerimeter=0;entryX=0.5;entryY=0;entryDx=0;entryDy=0;" edge="1" parent="WIyWlLk6GJQsqaUBKTNV-1" source="r6q-n-0OByCn1HlBLOru-6" target="r6q-n-0OByCn1HlBLOru-23">
          <mxGeometry width="50" height="50" relative="1" as="geometry">
            <mxPoint x="690" y="670" as="sourcePoint" />
            <mxPoint x="740" y="620" as="targetPoint" />
          </mxGeometry>
        </mxCell>
        <mxCell id="r6q-n-0OByCn1HlBLOru-25" value="&lt;font color=&quot;#08ffe6&quot;&gt;&amp;nbsp;Dispatch &lt;b&gt;userUpdated&lt;/b&gt; action with User with Token! on success&amp;nbsp; &lt;/font&gt;" style="endArrow=classic;html=1;rounded=0;exitX=1;exitY=0.5;exitDx=0;exitDy=0;" edge="1" parent="WIyWlLk6GJQsqaUBKTNV-1" source="r6q-n-0OByCn1HlBLOru-23">
          <mxGeometry width="50" height="50" relative="1" as="geometry">
            <mxPoint x="690" y="670" as="sourcePoint" />
            <mxPoint x="1300" y="730" as="targetPoint" />
          </mxGeometry>
        </mxCell>
        <mxCell id="r6q-n-0OByCn1HlBLOru-26" value="Error received?" style="rhombus;whiteSpace=wrap;html=1;" vertex="1" parent="WIyWlLk6GJQsqaUBKTNV-1">
          <mxGeometry x="545" y="800" width="150" height="80" as="geometry" />
        </mxCell>
        <mxCell id="r6q-n-0OByCn1HlBLOru-27" value="&lt;font color=&quot;#f00000&quot;&gt;&amp;nbsp;Yes? Dispatch &lt;b&gt;authenticatedUserIsNotValid&lt;/b&gt; action&amp;nbsp; &lt;/font&gt;" style="endArrow=classic;html=1;rounded=0;exitX=1;exitY=0.5;exitDx=0;exitDy=0;" edge="1" parent="WIyWlLk6GJQsqaUBKTNV-1" source="r6q-n-0OByCn1HlBLOru-26">
          <mxGeometry width="50" height="50" relative="1" as="geometry">
            <mxPoint x="710" y="839.5" as="sourcePoint" />
            <mxPoint x="1300" y="840" as="targetPoint" />
          </mxGeometry>
        </mxCell>
        <mxCell id="r6q-n-0OByCn1HlBLOru-28" value="Email correspond?" style="rhombus;whiteSpace=wrap;html=1;" vertex="1" parent="WIyWlLk6GJQsqaUBKTNV-1">
          <mxGeometry x="545" y="910" width="150" height="80" as="geometry" />
        </mxCell>
        <mxCell id="r6q-n-0OByCn1HlBLOru-29" value="&lt;font color=&quot;#f00000&quot;&gt;&amp;nbsp;No? Something went wrong. Dispatch &lt;b&gt;authenticatedUserIsNotValid&lt;/b&gt; action&amp;nbsp; &lt;/font&gt;" style="endArrow=classic;html=1;rounded=0;exitX=1;exitY=0.5;exitDx=0;exitDy=0;" edge="1" parent="WIyWlLk6GJQsqaUBKTNV-1" source="r6q-n-0OByCn1HlBLOru-28">
          <mxGeometry width="50" height="50" relative="1" as="geometry">
            <mxPoint x="710" y="949.5" as="sourcePoint" />
            <mxPoint x="1300" y="950" as="targetPoint" />
          </mxGeometry>
        </mxCell>
        <mxCell id="r6q-n-0OByCn1HlBLOru-30" value="" style="endArrow=classic;html=1;rounded=0;entryX=0.5;entryY=0;entryDx=0;entryDy=0;exitX=0.5;exitY=1;exitDx=0;exitDy=0;" edge="1" parent="WIyWlLk6GJQsqaUBKTNV-1" source="r6q-n-0OByCn1HlBLOru-23" target="r6q-n-0OByCn1HlBLOru-26">
          <mxGeometry width="50" height="50" relative="1" as="geometry">
            <mxPoint x="690" y="670" as="sourcePoint" />
            <mxPoint x="740" y="620" as="targetPoint" />
          </mxGeometry>
        </mxCell>
        <mxCell id="r6q-n-0OByCn1HlBLOru-31" value="" style="endArrow=classic;html=1;rounded=0;entryX=0.5;entryY=0;entryDx=0;entryDy=0;exitX=0.5;exitY=1;exitDx=0;exitDy=0;" edge="1" parent="WIyWlLk6GJQsqaUBKTNV-1" source="r6q-n-0OByCn1HlBLOru-26" target="r6q-n-0OByCn1HlBLOru-28">
          <mxGeometry width="50" height="50" relative="1" as="geometry">
            <mxPoint x="630" y="770" as="sourcePoint" />
            <mxPoint x="630" y="810" as="targetPoint" />
          </mxGeometry>
        </mxCell>
        <mxCell id="r6q-n-0OByCn1HlBLOru-32" value="Yes (meaning the user is &quot;valid&quot;)" style="endArrow=classic;html=1;rounded=0;exitX=0;exitY=0.5;exitDx=0;exitDy=0;" edge="1" parent="WIyWlLk6GJQsqaUBKTNV-1" source="r6q-n-0OByCn1HlBLOru-28">
          <mxGeometry width="50" height="50" relative="1" as="geometry">
            <mxPoint x="545" y="1050" as="sourcePoint" />
            <mxPoint x="220" y="950" as="targetPoint" />
          </mxGeometry>
        </mxCell>
        <mxCell id="r6q-n-0OByCn1HlBLOru-33" value="User logs in" style="rounded=1;whiteSpace=wrap;html=1;" vertex="1" parent="WIyWlLk6GJQsqaUBKTNV-1">
          <mxGeometry x="1584" y="80" width="120" height="40" as="geometry" />
        </mxCell>
        <mxCell id="r6q-n-0OByCn1HlBLOru-34" value="Success?" style="rhombus;whiteSpace=wrap;html=1;" vertex="1" parent="WIyWlLk6GJQsqaUBKTNV-1">
          <mxGeometry x="1584" y="170" width="120" height="60" as="geometry" />
        </mxCell>
        <mxCell id="r6q-n-0OByCn1HlBLOru-35" value="" style="endArrow=classic;html=1;rounded=0;exitX=0.5;exitY=1;exitDx=0;exitDy=0;entryX=0.5;entryY=0;entryDx=0;entryDy=0;" edge="1" parent="WIyWlLk6GJQsqaUBKTNV-1" source="r6q-n-0OByCn1HlBLOru-33" target="r6q-n-0OByCn1HlBLOru-34">
          <mxGeometry width="50" height="50" relative="1" as="geometry">
            <mxPoint x="1094" y="550" as="sourcePoint" />
            <mxPoint x="1144" y="500" as="targetPoint" />
          </mxGeometry>
        </mxCell>
        <mxCell id="r6q-n-0OByCn1HlBLOru-36" value="Actions Bus" style="shape=flexArrow;endArrow=classic;html=1;rounded=0;" edge="1" parent="WIyWlLk6GJQsqaUBKTNV-1">
          <mxGeometry x="-1" y="-20" width="50" height="50" relative="1" as="geometry">
            <mxPoint x="1300" y="70" as="sourcePoint" />
            <mxPoint x="1300" y="1100" as="targetPoint" />
            <mxPoint x="20" y="-20" as="offset" />
          </mxGeometry>
        </mxCell>
        <mxCell id="r6q-n-0OByCn1HlBLOru-37" value="&lt;font color=&quot;#ffa70f&quot;&gt;Yes? Create &lt;b&gt;loginSuccess&lt;/b&gt; action&amp;nbsp; &lt;/font&gt;" style="endArrow=classic;html=1;rounded=0;exitX=0;exitY=0.5;exitDx=0;exitDy=0;" edge="1" parent="WIyWlLk6GJQsqaUBKTNV-1" source="r6q-n-0OByCn1HlBLOru-34">
          <mxGeometry width="50" height="50" relative="1" as="geometry">
            <mxPoint x="950" y="550" as="sourcePoint" />
            <mxPoint x="1300" y="200" as="targetPoint" />
          </mxGeometry>
        </mxCell>
        <mxCell id="r6q-n-0OByCn1HlBLOru-38" value="&amp;nbsp;No? Create &lt;b&gt;loginError&lt;/b&gt; action (only for Login Form Component)&amp;nbsp; " style="endArrow=classic;html=1;rounded=0;exitX=0.5;exitY=1;exitDx=0;exitDy=0;" edge="1" parent="WIyWlLk6GJQsqaUBKTNV-1" source="r6q-n-0OByCn1HlBLOru-34">
          <mxGeometry x="0.1705" width="50" height="50" relative="1" as="geometry">
            <mxPoint x="1510" y="280" as="sourcePoint" />
            <mxPoint x="1300" y="320" as="targetPoint" />
            <Array as="points">
              <mxPoint x="1644" y="320" />
            </Array>
            <mxPoint x="-1" as="offset" />
          </mxGeometry>
        </mxCell>
        <mxCell id="r6q-n-0OByCn1HlBLOru-39" value="Update Profile" style="rounded=1;whiteSpace=wrap;html=1;" vertex="1" parent="WIyWlLk6GJQsqaUBKTNV-1">
          <mxGeometry x="1584" y="400" width="120" height="40" as="geometry" />
        </mxCell>
        <mxCell id="r6q-n-0OByCn1HlBLOru-40" value="Success?" style="rhombus;whiteSpace=wrap;html=1;" vertex="1" parent="WIyWlLk6GJQsqaUBKTNV-1">
          <mxGeometry x="1584" y="490" width="120" height="60" as="geometry" />
        </mxCell>
        <mxCell id="r6q-n-0OByCn1HlBLOru-41" value="" style="endArrow=classic;html=1;rounded=0;exitX=0.5;exitY=1;exitDx=0;exitDy=0;entryX=0.5;entryY=0;entryDx=0;entryDy=0;" edge="1" parent="WIyWlLk6GJQsqaUBKTNV-1" source="r6q-n-0OByCn1HlBLOru-39" target="r6q-n-0OByCn1HlBLOru-40">
          <mxGeometry width="50" height="50" relative="1" as="geometry">
            <mxPoint x="1094" y="870" as="sourcePoint" />
            <mxPoint x="1144" y="820" as="targetPoint" />
          </mxGeometry>
        </mxCell>
        <mxCell id="r6q-n-0OByCn1HlBLOru-42" value="&lt;font color=&quot;#08ffe6&quot;&gt;Yes? Create &lt;b&gt;userUpdated&lt;/b&gt; action without Token!&amp;nbsp; &lt;/font&gt;" style="endArrow=classic;html=1;rounded=0;exitX=0;exitY=0.5;exitDx=0;exitDy=0;" edge="1" parent="WIyWlLk6GJQsqaUBKTNV-1" source="r6q-n-0OByCn1HlBLOru-40">
          <mxGeometry width="50" height="50" relative="1" as="geometry">
            <mxPoint x="950" y="870" as="sourcePoint" />
            <mxPoint x="1300" y="520" as="targetPoint" />
          </mxGeometry>
        </mxCell>
        <mxCell id="r6q-n-0OByCn1HlBLOru-44" value="No? Return to form." style="endArrow=classic;html=1;rounded=0;exitX=0.5;exitY=1;exitDx=0;exitDy=0;" edge="1" parent="WIyWlLk6GJQsqaUBKTNV-1" source="r6q-n-0OByCn1HlBLOru-40">
          <mxGeometry width="50" height="50" relative="1" as="geometry">
            <mxPoint x="950" y="550" as="sourcePoint" />
            <mxPoint x="1644" y="630" as="targetPoint" />
          </mxGeometry>
        </mxCell>
      </root>
    </mxGraphModel>
  </diagram>
</mxfile>
